# xmcd
#
# Track frame offsets:
#	150
#	18476
#	29578
#	41934
#	53526
#	70153
#	84355
#	97838
#	112334
#	123295
#	136551
#	152857
#	167161
#	179282
#	194726
#	206418
#	219728
#	234110
#	249068
#	262770
#	280054
#	290731
#
# Disc length: 4093 seconds
#
# Revision: 2
# Processed by: cddbd v1.4PL0 Copyright (c) Steve Scherf et al.
# Submitted via: audiograbber 1.80
#
DISCID=340ffb16
DTITLE=Various Country Artists - Time-Life Contemporary Country The Late '70's
DYEAR=1900
DGENRE=
TTITLE0=Hank  Williams Jr. - Family Tradition
TTITLE1=The Kendalls - Heaven's Just A Sin Away
TTITLE2=Moe Bandy - It's A Cheating Siutration
TTITLE3=Willie Nelson - Mamma's Don't Let Your Babies Grow Up To Be Cowboys- Je
TTITLE3=nnings, Waylon
TTITLE4=Ronnie Milsap - It Was Almost Like A Song
TTITLE5=Merle Haggard - Ramblin' Fever
TTITLE6=Dolly Parton - Here You Come Again
TTITLE7=Bellamy Brothers - If I Said I You Had A Beautiful Body Would You Hold 
TTITLE7=It Against Me
TTITLE8=Tammy Wynette - Near You- Jones, George
TTITLE9=Conway Twitty - Happy Birthday Darlin'
TTITLE10=Willie Nelson - Blue Skies
TTITLE11=Emmylou Harris - Two More Bottles Of Wine
TTITLE12=Johnny Paycheck - Take This Job And Shove It
TTITLE13=John Conlee - Rose Colored Glasses
TTITLE14=Crystal Gayle - Don't It Make My Brown Eyes Blue
TTITLE15=Elvis Presley - Moody Blue
TTITLE16=Don Williams - Tulsa Time
TTITLE17=Waylon Jennings - Luckenbach, Texas (Back To The Basics Of Love) 
TTITLE18=Glen Campbell - Southern Nights
TTITLE19=James Taylor - Bartender's Blues- Jones, George
TTITLE20=Barbara Mandrell - Sleeping Single In A Double Bed
TTITLE21=The Charlie Daniels Band - The Devil Went Down To Georgia
EXTD=
EXTT0=
EXTT1=
EXTT2=
EXTT3=
EXTT4=
EXTT5=
EXTT6=
EXTT7=
EXTT8=
EXTT9=
EXTT10=
EXTT11=
EXTT12=
EXTT13=
EXTT14=
EXTT15=
EXTT16=
EXTT17=
EXTT18=
EXTT19=
EXTT20=
EXTT21=
PLAYORDER=
